<?xml version="1.0" encoding="UTF-8" standalone="no"?><!DOCTYPE svg PUBLIC "-//W3C//DTD SVG 1.1//EN" "http://www.w3.org/Graphics/SVG/1.1/DTD/svg11.dtd"><svg width="100%" height="100%" viewBox="0 0 8 8" version="1.1" xmlns="http://www.w3.org/2000/svg" xmlns:xlink="http://www.w3.org/1999/xlink" xml:space="preserve" xmlns:serif="http://www.serif.com/" style="fill-rule:evenodd;clip-rule:evenodd;stroke-linejoin:round;stroke-miterlimit:2;"><path d="M7.757,2.091c0,-1.049 -0.851,-1.901 -1.9,-1.901l-3.801,0c-1.049,0 -1.901,0.852 -1.901,1.901l0,3.801c0,1.049 0.852,1.9 1.901,1.9l3.801,0c1.049,0 1.9,-0.851 1.9,-1.9l0,-3.801Z" style="fill:#ebebeb;"/><clipPath id="_clip1"><path d="M7.757,2.091c0,-1.049 -0.851,-1.901 -1.9,-1.901l-3.801,0c-1.049,0 -1.901,0.852 -1.901,1.901l0,3.801c0,1.049 0.852,1.9 1.901,1.9l3.801,0c1.049,0 1.9,-0.851 1.9,-1.9l0,-3.801Z"/></clipPath><g clip-path="url(#_clip1)"><path d="M0.155,5.892l0,-3.801l3.801,0l0,-1.901l3.801,3.801l-3.801,3.801l0,-1.9l-3.801,0Z" style="fill:#fff;"/></g></svg>